<svg width="19" height="18" viewBox="0 0 19 18" fill="none" xmlns="http://www.w3.org/2000/svg">
<g clip-path="url(#clip0_964_311)">
<path d="M5.1001 6C5.1001 4.80653 5.5742 3.66193 6.41812 2.81802C7.26203 1.97411 8.40662 1.5 9.6001 1.5C10.7936 1.5 11.9382 1.97411 12.7821 2.81802C13.626 3.66193 14.1001 4.80653 14.1001 6C14.1001 11.25 16.3501 12.75 16.3501 12.75H2.8501C2.8501 12.75 5.1001 11.25 5.1001 6Z" stroke="#6B7280" stroke-width="1.5" stroke-linecap="round" stroke-linejoin="round"/>
<path d="M8.3252 15.75C8.45073 15.9783 8.63528 16.1688 8.85956 16.3014C9.08385 16.434 9.33963 16.504 9.6002 16.504C9.86076 16.504 10.1165 16.434 10.3408 16.3014C10.5651 16.1688 10.7497 15.9783 10.8752 15.75" stroke="#6B7280" stroke-width="1.5" stroke-linecap="round" stroke-linejoin="round"/>
</g>
<defs>
<clipPath id="clip0_964_311">
<rect width="18" height="18" fill="white" transform="translate(0.600098)"/>
</clipPath>
</defs>
</svg>
